:SAMPLES-PER-SECOND 30
:FULLY-SPECIFIED
:DEGREES
17
root  3.37428 40.4528 -0.32987 -171.746 -80.4914 167.669
RightUpLeg  -3.65751 -8.13664 -4.75423
RightLeg  21.2861 -3.47892 -1.75924
RightFoot  -8.62247 -0.121909 2.60688
RightToes  0.00048216 0.542163 -0.142577
Spine  4.25232 0.636247 -0.042148
Spine1  3.38297 1.46374 -3.99649
HEad  9.04037 -7.29084 -0.186071
LeftShoulder1  0.685395 -0.450736 -9.86789
LeftArm  -21.3147 8.72417 -12.0153
LeftForeArm  9.24153 -4.99688 -1.1387
LeftHand  -0.25398 0.0180481 5.50724
RightShoulder  1.07375 2.61181 10.3109
RightArm  -24.3572 -3.11038 12.7113
RightForeArm  -4.08942 7.61645 3.28191
RightHand  -1.76002 5.05649 -19.7424
LeftUpLeg  3.59814 6.8517 0.230859
LeftLeg  8.71171 21.8249 -2.44879
LeftFoot  -11.0936 0.0709816 -1.9224
LeftToes  1.06246e-005 4.65856e-005 -8.18501e-006
18
root  3.35648 40.3404 -0.346494 -172.765 -79.0784 167.888
RightUpLeg  -6.54686 -6.9403 -5.13779
RightLeg  27.5413 -3.12033 -1.98044
RightFoot  -6.83206 -0.232347 4.65506
RightToes  0.00048216 0.542163 -0.142577
Spine  5.35943 0.644709 -0.29661
Spine1  4.03698 1.51151 -4.41939
HEad  9.99779 -6.64244 -0.765314
LeftShoulder1  0.906811 -1.07503 -12.6101
LeftArm  -21.6417 8.99469 -13.4529
LeftForeArm  10.0391 -6.10209 -1.19983
LeftHand  -0.25398 0.0180481 5.50724
RightShoulder  1.37607 3.38803 12.9874
RightArm  -23.288 -3.59182 14.7802
RightForeArm  -1.22485 9.74352 3.71515
RightHand  -1.63971 4.60767 -19.2192
LeftUpLeg  4.01902 7.55966 0.248661
LeftLeg  10.1912 22.4968 -1.9034
LeftFoot  -12.0626 0.0568779 -2.43272
LeftToes  1.06246e-005 4.65856e-005 -8.18501e-006
19
root  3.30725 40.2301 -0.374365 -173.085 -77.8981 167.571
RightUpLeg  -10.0522 -7.06079 -5.71214
RightLeg  34.1497 -2.06492 -1.75311
RightFoot  -3.78916 -0.433554 6.18622
RightToes  0.00048216 0.542163 -0.142577
Spine  6.42491 0.556245 -0.696504
Spine1  4.7746 1.42107 -4.70715
HEad  10.2531 -5.97027 -1.26134
LeftShoulder1  1.23944 -1.96776 -15.7497
LeftArm  -21.5333 8.69608 -15.3321
LeftForeArm  10.1528 -6.30796 -1.37732
LeftHand  -0.25398 0.0180481 5.50724
RightShoulder  1.72849 4.05923 16.1553
RightArm  -21.4829 -4.13795 16.5422
RightForeArm  2.52343 11.7363 4.06154
RightHand  -1.42751 3.94167 -17.9444
LeftUpLeg  4.35225 8.09139 0.191092
LeftLeg  11.5175 22.9717 -1.40731
LeftFoot  -12.9521 0.0327324 -3.18328
LeftToes  1.06246e-005 4.65856e-005 -8.18501e-006
20
root  3.21139 40.1337 -0.428408 -172.894 -77.1119 166.85
RightUpLeg  -13.3206 -7.83035 -6.29627
RightLeg  39.2567 -1.27809 -1.39824
RightFoot  -0.93437 -0.621345 6.76186
RightToes  0.00048216 0.542163 -0.142577
Spine  7.46712 0.358707 -1.35071
Spine1  5.46429 1.12424 -4.60223
HEad  10.1556 -5.32071 -1.58381
LeftShoulder1  1.69184 -3.14128 -18.8213
LeftArm  -20.4099 7.58852 -17.811
LeftForeArm  10.0246 -4.8752 -1.7807
LeftHand  -0.25398 0.0180481 5.50724
RightShoulder  2.13854 4.78021 19.3621
RightArm  -18.9592 -5.16552 18.3148
RightForeArm  6.31397 13.5225 4.28513
RightHand  -1.21691 3.38403 -16.3108
LeftUpLeg  4.80017 8.46835 0.131931
LeftLeg  12.444 23.254 -1.10206
LeftFoot  -13.7515 0.00188173 -3.84099
LeftToes  1.06246e-005 4.65856e-005 -8.18501e-006
21
root  3.05713 40.0764 -0.51226 -172.899 -76.8072 166.531
RightUpLeg  -15.8269 -9.1792 -6.69647
RightLeg  41.2749 -1.06561 -1.28924
RightFoot  0.326601 -0.692436 6.7914
RightToes  0.00048216 0.542163 -0.142577
Spine  8.31323 0.0220023 -2.09048
Spine1  6.03309 0.57612 -3.99979
HEad  10.1171 -4.57356 -1.81031
LeftShoulder1  2.25564 -4.57783 -21.4739
LeftArm  -18.6818 6.02721 -21.0706
LeftForeArm  10.7136 -2.52889 -2.32365
LeftHand  -0.25398 0.0180481 5.50724
RightShoulder  2.58914 5.60244 22.1663
RightArm  -15.8907 -6.9165 20.5451
RightForeArm  8.84163 15.0146 4.45376
RightHand  -1.07112 2.92233 -15.1682
LeftUpLeg  5.32241 8.72601 0.236747
LeftLeg  12.8636 23.3649 -0.970945
LeftFoot  -14.3653 -0.0215898 -4.08379
LeftToes  1.06246e-005 4.65856e-005 -8.18501e-006
22
root  2.83862 40.0492 -0.627493 -173.388 -76.7811 166.911
RightUpLeg  -17.515 -10.9731 -6.88269
RightLeg  39.8414 -1.46821 -1.58251
RightFoot  0.128429 -0.686523 6.83691
RightToes  0.00048216 0.542163 -0.142577
Spine  9.01851 -0.39396 -2.764
Spine1  6.44296 -0.124449 -3.08803
HEad  10.1348 -3.69964 -2.08373
LeftShoulder1  2.89941 -6.11076 -23.8682
LeftArm  -17.1723 4.37202 -24.9145
LeftForeArm  13.1651 -0.923582 -2.83621
LeftHand  -0.25398 0.0180481 5.50724
RightShoulder  3.00617 6.31527 24.4774
RightArm  -12.7799 -9.19184 23.4069
RightForeArm  9.96577 16.1099 4.58892
RightHand  -0.941218 2.21081 -14.5524
LeftUpLeg  5.84172 8.89131 0.554286
LeftLeg  12.996 23.1798 -0.929996
LeftFoot  -14.8829 -0.0485619 -4.44563
LeftToes  1.06246e-005 4.65856e-005 -8.18501e-006
23
root  2.55813 40.0148 -0.778598 -173.863 -76.7402 167.327
RightUpLeg  -18.5471 -12.8 -7.00476
RightLeg  35.7136 -2.26863 -1.99989
RightFoot  -0.322459 -0.671097 6.92545
RightToes  0.00048216 0.542163 -0.142577
Spine  9.87987 -0.798266 -3.50212
Spine1  6.69055 -0.867721 -2.04839
HEad  9.86852 -2.72343 -2.48677
LeftShoulder1  3.56107 -7.44063 -26.3699
LeftArm  -16.0444 2.49884 -28.8376
LeftForeArm  17.3322 -0.836626 -3.28551
LeftHand  -0.25398 0.0180481 5.50724
RightShoulder  3.30149 6.70116 26.2913
RightArm  -10.3636 -11.6543 26.9624
RightForeArm  10.8932 16.732 4.66091
RightHand  -0.786177 1.26581 -13.8282
LeftUpLeg  6.4191 8.97804 0.902909
LeftLeg  13.1392 22.7654 -0.879606
LeftFoot  -15.4922 -0.0994014 -5.29581
LeftToes  1.06246e-005 4.65856e-005 -8.18501e-006
24
root  2.2192 39.9591 -0.965118 -173.781 -76.5993 167.169
RightUpLeg  -19.1272 -14.3274 -7.19201
RightLeg  29.9081 -2.87058 -2.02029
RightFoot  -0.355311 -0.666239 6.89396
RightToes  0.00048216 0.542163 -0.142577
Spine  10.987 -1.20233 -4.42628
Spine1  6.77743 -1.66353 -0.93326
HEad  9.19342 -1.59852 -2.99477
LeftShoulder1  4.15513 -8.36709 -28.9174
LeftArm  -14.707 0.179707 -32.5938
LeftForeArm  22.0679 -1.73711 -3.84453
LeftHand  -0.25398 0.0180481 5.50724
RightShoulder  3.46151 6.82926 27.4761
RightArm  -9.15501 -14.2173 31.3086
RightForeArm  12.5859 16.7264 4.69567
RightHand  -0.63807 0.472445 -12.6975
LeftUpLeg  7.07729 9.02013 1.10133
LeftLeg  13.359 22.5115 -0.746815
LeftFoot  -16.1878 -0.156311 -5.98809
LeftToes  1.06246e-005 4.65856e-005 -8.18501e-006
25
root  1.81084 39.8732 -1.19208 -172.822 -76.4006 166.18
RightUpLeg  -19.4049 -15.7433 -7.49605
RightLeg  23.2394 -2.5373 -1.45428
RightFoot  -0.284861 -0.680359 7.00059
RightToes  0.00048216 0.542163 -0.142577
Spine  12.1045 -1.6676 -5.5771
Spine1  6.75938 -2.55712 0.157496
HEad  8.34225 -0.296378 -3.54645
LeftShoulder1  4.6147 -8.93966 -31.0331
LeftArm  -12.7211 -2.47513 -36.3317
LeftForeArm  26.2344 -2.94519 -4.61265
LeftHand  -0.25398 0.0180481 5.50724
RightShoulder  3.56933 6.96186 28.099
RightArm  -9.18371 -16.8702 36.201
RightForeArm  14.9374 15.8119 4.81689
RightHand  -0.520274 -0.0696767 -11.3678
LeftUpLeg  7.70138 9.08111 1.10895
LeftLeg  13.741 22.4703 -0.528495
LeftFoot  -16.934 -0.204565 -6.25927
LeftToes  1.06246e-005 4.65856e-005 -8.18501e-006
26
root  1.31448 39.75 -1.47069 -170.942 -76.1004 164.292
RightUpLeg  -19.4688 -17.1524 -8.03746
RightLeg  16.5824 -1.63028 -0.578424
RightFoot  -0.317586 -0.706634 7.28942
RightToes  0.00048216 0.542163 -0.142577
Spine  13.0146 -2.17338 -6.94741
Spine1  6.85716 -3.51245 1.1738
HEad  7.5137 1.09516 -4.18024
LeftShoulder1  4.93047 -9.29897 -32.4632
LeftArm  -10.1109 -5.28802 -40.0692
LeftForeArm  29.7509 -4.39256 -5.54097
LeftHand  -0.25398 0.0180481 5.50724
RightShoulder  3.71166 7.23516 28.5684
RightArm  -9.99633 -19.3674 40.9015
RightForeArm  17.6895 13.936 5.10555
RightHand  -0.397637 -0.756485 -9.88358
LeftUpLeg  8.42672 9.13107 0.96481
LeftLeg  14.1274 22.295 -0.410604
LeftFoot  -17.6827 -0.276995 -6.89804
LeftToes  1.06246e-005 4.65856e-005 -8.18501e-006
27
root  0.729282 39.6065 -1.79818 -168.689 -75.5569 161.989
RightUpLeg  -19.3694 -16.8681 -9.39328
RightLeg  10.9503 -2.76675 0.586287
RightFoot  -0.117895 -0.707624 7.18644
RightToes  0.00048216 0.542163 -0.142577
Spine  13.7171 -2.6149 -8.34559
Spine1  7.29796 -4.42745 2.19547
HEad  6.71145 2.45029 -5.02538
LeftShoulder1  5.12909 -9.49152 -33.4166
LeftArm  -7.03579 -8.26408 -43.5019
LeftForeArm  33.3614 -6.23008 -6.51903
LeftHand  -0.25398 0.0180481 5.50724
RightShoulder  3.89259 7.56534 29.1871
RightArm  -10.5731 -21.4723 44.698
RightForeArm  21.2353 11.7677 5.46101
RightHand  -0.231029 -2.08874 -7.6301
LeftUpLeg  9.54501 9.06554 0.708906
LeftLeg  14.1023 22.2221 -0.525597
LeftFoot  -18.2334 -0.36969 -7.94645
LeftToes  1.06246e-005 4.65856e-005 -8.18501e-006
28
root  0.0570456 39.4499 -2.16892 -166.984 -74.7021 160.22
RightUpLeg  -19.41 -14.932 -11.1606
RightLeg  7.07956 -5.71749 1.77741
RightFoot  0.295431 -0.677269 6.65749
RightToes  0.00048216 0.542163 -0.142577
Spine  14.3246 -2.93387 -9.47634
Spine1  7.94967 -5.21425 3.17106
HEad  5.96553 3.72883 -6.11653
LeftShoulder1  5.22626 -9.50679 -34.1094
LeftArm  -3.40093 -11.2475 -46.4768
LeftForeArm  36.9514 -8.5279 -7.26486
LeftHand  -0.25398 0.0180481 5.50724
RightShoulder  4.0651 7.8473 29.8471
RightArm  -9.73316 -23.3135 47.3187
RightForeArm  26.0405 10.5021 5.79572
RightHand  -0.0730179 -4.21479 -3.72415
LeftUpLeg  10.9767 8.93007 0.455804
LeftLeg  13.8241 22.8884 -0.670794
LeftFoot  -18.5326 -0.414494 -8.35458
LeftToes  1.06246e-005 4.65856e-005 -8.18501e-006
29
root  -0.714374 39.2635 -2.59615 -166.423 -73.698 159.582
RightUpLeg  -19.8644 -14.1299 -11.9096
RightLeg  5.47826 -6.70607 2.11199
RightFoot  0.333571 -0.65478 6.41971
RightToes  0.00048216 0.542163 -0.142577
Spine  14.9999 -3.1874 -10.2167
Spine1  8.44277 -5.8933 3.9986
HEad  5.37546 5.0068 -7.30803
LeftShoulder1  5.23385 -9.40284 -34.4847
LeftArm  1.28292 -13.7168 -49.1302
LeftForeArm  38.4461 -11.4778 -7.2423
LeftHand  -0.25398 0.0180481 5.50724
RightShoulder  4.2048 8.08704 30.3193
RightArm  -6.99931 -25.1359 48.751
RightForeArm  31.2828 10.8752 6.14241
RightHand  -0.0635192 -6.44179 1.56823
LeftUpLeg  12.5473 8.89409 0.481553
LeftLeg  13.7728 23.8369 -0.708148
LeftFoot  -18.8425 -0.436719 -8.3687
LeftToes  1.06246e-005 4.65856e-005 -8.18501e-006
30
root  -1.58026 39.0545 -3.09636 -166.943 -72.8966 159.979
RightUpLeg  -20.3798 -14.3501 -11.743
RightLeg  6.25161 -6.15107 1.67985
RightFoot  -0.0530314 -0.626585 6.32251
RightToes  0.00048216 0.542163 -0.142577
Spine  15.8668 -3.4808 -10.6627
Spine1  8.69095 -6.63604 4.91099
HEad  4.93859 6.40037 -8.41546
LeftShoulder1  5.19815 -9.29913 -34.5328
LeftArm  6.10373 -15.2294 -51.3203
LeftForeArm  36.8276 -14.9822 -6.27358
LeftHand  -0.25398 0.0180481 5.50724
RightShoulder  4.30482 8.29705 30.5244
RightArm  -2.72189 -26.8626 49.105
RightForeArm  34.224 12.4849 6.35418
RightHand  -0.173548 -7.6682 5.92498
LeftUpLeg  14.3897 8.99389 1.01597
LeftLeg  13.7511 23.8959 -0.7676
LeftFoot  -19.2981 -0.544886 -9.46919
LeftToes  1.06246e-005 4.65856e-005 -8.18501e-006
31
root  -2.5183 38.8687 -3.6705 -168.457 -72.5785 161.531
RightUpLeg  -20.9026 -15.5202 -10.6973
RightLeg  8.77745 -5.45285 0.947644
RightFoot  0.26875 -0.547901 5.41904
RightToes  0.00048216 0.542163 -0.142577
Spine  16.7654 -3.91971 -10.6869
Spine1  8.88161 -7.57218 6.16284
HEad  4.57531 7.90818 -9.32069
LeftShoulder1  5.18751 -9.28116 -34.507
LeftArm  9.716 -15.8358 -52.5976
LeftForeArm  33.2834 -18.4325 -4.84138
LeftHand  -0.25398 0.0180481 5.50724
RightShoulder  4.32718 8.39659 30.4051
RightArm  1.41351 -28.214 48.7688
RightForeArm  33.3161 14.1827 6.29728
RightHand  -0.208228 -7.72508 7.11331
LeftUpLeg  16.4526 9.18509 2.15353
LeftLeg  13.2862 23.1944 -0.780642
LeftFoot  -19.622 -0.700827 -11.2795
LeftToes  1.06246e-005 4.65856e-005 -8.18501e-006
